<?xml version="1.0" standalone="no"?>
<!DOCTYPE svg PUBLIC "-//W3C//DTD SVG 20010904//EN"
 "http://www.w3.org/TR/2001/REC-SVG-20010904/DTD/svg10.dtd">
<svg version="1.0" xmlns="http://www.w3.org/2000/svg"
 width="1024.000000pt" height="1024.000000pt" viewBox="0 0 1024.000000 1024.000000"
 preserveAspectRatio="xMidYMid meet">

<g transform="translate(0.000000,1024.000000) scale(0.100000,-0.100000)"
fill="#007bff" stroke="#007bff">
<path d="M2130 8271 c-98 -30 -193 -111 -232 -199 -33 -72 -32 -209 1 -277 32
-63 92 -124 156 -155 49 -25 53 -25 385 -30 l334 -5 82 -345 c91 -384 135
-570 265 -1125 49 -209 110 -463 134 -565 25 -102 97 -401 160 -665 133 -554
184 -765 190 -782 2 -7 -24 -22 -62 -37 -204 -79 -386 -250 -478 -449 -52
-113 -67 -191 -66 -347 0 -151 18 -239 69 -353 97 -214 294 -381 529 -449 66
-20 100 -23 223 -22 127 1 156 4 233 28 48 14 114 39 145 55 185 93 334 278
403 501 20 63 24 97 24 215 0 77 -4 161 -8 188 l-8 47 576 0 c549 0 576 -1
571 -18 -15 -46 -25 -175 -20 -257 15 -234 133 -458 318 -600 354 -271 898
-196 1151 160 179 250 219 558 106 825 -107 254 -374 468 -638 510 -37 6 -93
15 -123 21 -35 6 -454 11 -1159 12 l-1105 2 -53 210 c-29 116 -53 213 -53 217
0 4 597 9 1328 10 l1327 3 57 22 c79 30 154 81 214 145 76 81 90 110 284 623
56 149 129 340 162 425 33 85 98 252 144 370 45 118 128 330 183 471 150 387
158 420 126 542 -20 77 -48 130 -98 184 -52 57 -99 87 -176 113 -60 20 -74 20
-2154 20 l-2093 0 -12 43 c-7 23 -32 126 -56 228 -25 103 -54 206 -66 230 -59
116 -156 202 -278 245 -66 23 -71 24 -492 23 -234 0 -436 -4 -450 -8z m5130
-1384 c0 -2 -12 -32 -27 -68 -14 -35 -43 -111 -63 -169 l-38 -105 -1716 -3
-1715 -2 -10 37 c-13 47 -57 236 -66 281 l-7 32 1821 0 c1002 0 1821 -1 1821
-3z m-240 -641 c0 -3 -99 -272 -121 -326 l-9 -25 -1514 3 -1513 2 -11 38 c-10
34 -72 298 -72 308 0 2 729 4 1620 4 891 0 1620 -2 1620 -4z m-1650 -636
l1408 0 -50 -132 c-27 -73 -59 -157 -71 -185 l-21 -53 -1307 0 -1307 0 -21 79
c-12 44 -31 121 -42 173 -11 51 -22 102 -26 112 -4 15 -2 18 12 13 9 -4 650
-7 1425 -7z"/>
</g>
</svg>
